<?xml version="1.0" encoding="UTF-8"?>
<svg xmlns="http://www.w3.org/2000/svg" xmlns:xlink="http://www.w3.org/1999/xlink" width="32px" height="32px" viewBox="0 0 32 31" version="1.1">
<g id="surface1">
<path style=" stroke:none;fill-rule:nonzero;fill:rgb(0%,0%,0%);fill-opacity:1;" d="M 9.917969 0.863281 C 9.875 0.929688 9.875 1.339844 9.917969 1.769531 C 9.972656 2.34375 9.949219 2.742188 9.820312 3.214844 C 9.644531 3.917969 9.160156 4.75 8.929688 4.75 C 8.710938 4.75 8.527344 5.050781 8.601562 5.289062 C 8.65625 5.449219 8.765625 5.503906 9.050781 5.503906 C 9.347656 5.503906 9.511719 5.417969 9.796875 5.117188 C 10.136719 4.75 10.179688 4.738281 10.804688 4.769531 L 11.453125 4.804688 L 11.550781 5.234375 C 11.691406 5.925781 11.8125 6.152344 12.042969 6.152344 C 12.765625 6.152344 12.460938 4.726562 11.199219 2.300781 C 10.957031 1.835938 10.71875 1.304688 10.664062 1.132812 C 10.597656 0.894531 10.5 0.796875 10.28125 0.777344 C 10.125 0.753906 9.960938 0.796875 9.917969 0.863281 Z M 10.9375 3.605469 C 11.035156 3.832031 11.023438 3.863281 10.785156 3.917969 C 10.574219 3.949219 10.519531 3.929688 10.5625 3.808594 C 10.597656 3.722656 10.628906 3.582031 10.628906 3.496094 C 10.628906 3.257812 10.804688 3.324219 10.9375 3.605469 Z M 10.9375 3.605469 "/>
<path style=" stroke:none;fill-rule:nonzero;fill:rgb(0%,0%,0%);fill-opacity:1;" d="M 13.984375 1.175781 C 13.808594 1.296875 13.621094 1.445312 13.578125 1.53125 C 13.457031 1.714844 13.457031 3.832031 13.589844 4.359375 C 13.632812 4.585938 13.753906 4.855469 13.839844 4.945312 C 14.070312 5.160156 14.738281 5.03125 15.089844 4.683594 C 15.351562 4.425781 15.363281 4.359375 15.308594 3.582031 C 15.265625 2.859375 15.289062 2.71875 15.472656 2.515625 C 15.769531 2.203125 15.867188 1.390625 15.636719 1.199219 C 15.539062 1.121094 15.199219 1.046875 14.882812 1.015625 C 14.433594 0.980469 14.226562 1.027344 13.984375 1.175781 Z M 14.761719 1.8125 C 14.847656 1.867188 14.828125 1.953125 14.683594 2.136719 C 14.433594 2.4375 14.355469 2.4375 14.355469 2.125 C 14.355469 1.757812 14.5 1.652344 14.761719 1.8125 Z M 14.574219 3.746094 C 14.574219 3.875 14.53125 4.015625 14.464844 4.046875 C 14.398438 4.089844 14.355469 3.929688 14.355469 3.648438 C 14.355469 3.3125 14.390625 3.226562 14.464844 3.347656 C 14.519531 3.433594 14.574219 3.617188 14.574219 3.746094 Z M 14.574219 3.746094 "/>
<path style=" stroke:none;fill-rule:nonzero;fill:rgb(0%,0%,0%);fill-opacity:1;" d="M 19.277344 1.5 C 18.398438 1.566406 18.289062 1.617188 17.65625 2.308594 C 17.007812 2.988281 16.765625 3.453125 16.765625 4.015625 C 16.765625 4.445312 16.8125 4.554688 17.050781 4.71875 C 17.378906 4.921875 18.324219 5.03125 18.914062 4.921875 C 19.222656 4.855469 19.34375 4.769531 19.441406 4.511719 C 19.5625 4.199219 19.582031 4.1875 20.109375 4.242188 C 20.734375 4.308594 21.042969 4.1875 21.042969 3.898438 C 21.042969 3.550781 20.777344 3.453125 19.582031 3.390625 L 18.421875 3.3125 L 18.355469 3.59375 C 18.3125 3.746094 18.3125 3.929688 18.355469 3.984375 C 18.398438 4.058594 18.28125 4.101562 18.039062 4.101562 C 17.699219 4.101562 17.644531 4.070312 17.644531 3.851562 C 17.644531 3.703125 17.863281 3.347656 18.167969 3 L 18.683594 2.40625 L 19.527344 2.351562 C 20.363281 2.300781 20.710938 2.160156 20.710938 1.878906 C 20.710938 1.695312 20.40625 1.402344 20.242188 1.425781 C 20.164062 1.4375 19.738281 1.46875 19.277344 1.5 Z M 19.277344 1.5 "/>
<path style=" stroke:none;fill-rule:nonzero;fill:rgb(0%,0%,0%);fill-opacity:1;" d="M 15.179688 7.394531 C 14.695312 7.480469 14.246094 7.542969 14.179688 7.542969 C 14.113281 7.554688 13.710938 7.867188 13.28125 8.257812 C 12.84375 8.644531 12.425781 8.957031 12.363281 8.957031 C 12.296875 8.957031 12.066406 9.089844 11.859375 9.238281 C 11.527344 9.488281 11.496094 9.574219 11.539062 9.875 C 11.574219 10.082031 11.539062 10.320312 11.464844 10.425781 C 10.992188 11.117188 10.554688 13.15625 10.847656 13.332031 C 10.914062 13.363281 10.957031 13.707031 10.957031 14.085938 C 10.957031 14.679688 10.992188 14.789062 11.179688 14.839844 C 11.296875 14.875 11.441406 14.875 11.507812 14.839844 C 11.574219 14.796875 11.617188 14.9375 11.617188 15.199219 C 11.617188 15.433594 11.683594 15.671875 11.757812 15.738281 C 11.914062 15.855469 12.722656 15.886719 12.886719 15.78125 C 13.074219 15.660156 13.292969 12.898438 13.140625 12.617188 C 13.019531 12.390625 13.050781 11.289062 13.183594 11.160156 C 13.214844 11.128906 13.4375 11.246094 13.675781 11.429688 C 13.996094 11.691406 14.234375 11.777344 14.585938 11.796875 C 15.070312 11.820312 15.070312 11.820312 15.375 11.226562 C 15.59375 10.816406 15.671875 10.511719 15.648438 10.234375 C 15.617188 9.898438 15.648438 9.832031 15.847656 9.789062 C 16.054688 9.757812 16.078125 9.789062 16.03125 10.1875 C 16 10.523438 16.054688 10.773438 16.296875 11.226562 C 16.65625 11.925781 16.929688 12.011719 17.65625 11.667969 C 17.917969 11.539062 18.136719 11.441406 18.148438 11.441406 C 18.148438 11.441406 18.226562 11.734375 18.300781 12.101562 C 18.378906 12.457031 18.53125 12.867188 18.640625 13.007812 C 18.761719 13.148438 18.847656 13.320312 18.847656 13.40625 C 18.847656 13.609375 19.265625 14.246094 19.410156 14.246094 C 19.472656 14.246094 19.648438 14.34375 19.804688 14.464844 C 20.121094 14.710938 20.492188 14.746094 20.691406 14.550781 C 20.765625 14.472656 20.820312 14.097656 20.820312 13.589844 C 20.820312 12.726562 20.667969 12.242188 20.195312 11.582031 C 20.054688 11.398438 19.945312 11.171875 19.945312 11.074219 C 19.945312 10.988281 19.902344 10.804688 19.847656 10.664062 C 19.792969 10.523438 19.671875 10.136719 19.5625 9.789062 C 19.277344 8.796875 18.246094 7.964844 16.996094 7.726562 C 16.789062 7.695312 16.558594 7.566406 16.472656 7.449219 C 16.382812 7.328125 16.253906 7.242188 16.1875 7.242188 C 16.109375 7.253906 15.660156 7.316406 15.179688 7.394531 Z M 15.179688 7.394531 "/>
<path style=" stroke:none;fill-rule:nonzero;fill:rgb(0%,0%,0%);fill-opacity:1;" d="M 14.464844 13.0625 C 14.476562 13.566406 15.199219 14.140625 15.835938 14.140625 C 16.472656 14.140625 17.195312 13.566406 17.207031 13.0625 L 17.207031 12.789062 L 14.464844 12.789062 Z M 14.464844 13.0625 "/>
<path style=" stroke:none;fill-rule:nonzero;fill:rgb(0%,0%,0%);fill-opacity:1;" d="M 15.804688 15.867188 C 15.804688 16.308594 15.835938 17.085938 15.867188 17.59375 C 15.945312 18.480469 15.933594 18.53125 15.617188 19.050781 C 15.429688 19.34375 15.210938 19.785156 15.132812 20.023438 C 15.058594 20.261719 14.847656 20.671875 14.683594 20.941406 C 14.519531 21.210938 14.34375 21.542969 14.300781 21.695312 C 14.257812 21.847656 14.453125 21.578125 14.730469 21.113281 C 15.003906 20.636719 15.234375 20.207031 15.234375 20.140625 C 15.234375 20.023438 15.628906 19.214844 15.835938 18.890625 C 15.96875 18.695312 16.03125 19.289062 16.207031 21.910156 C 16.339844 23.746094 16.472656 24.738281 16.679688 25.332031 C 16.800781 25.667969 16.800781 25.679688 15.683594 26.78125 C 15.070312 27.382812 14.585938 27.902344 14.621094 27.921875 C 14.640625 27.957031 15.15625 27.480469 15.746094 26.875 L 16.832031 25.785156 L 17.664062 26.164062 C 18.125 26.371094 18.707031 26.640625 18.949219 26.757812 C 19.199219 26.867188 19.375 26.917969 19.34375 26.875 C 19.308594 26.824219 18.761719 26.542969 18.136719 26.238281 C 17.140625 25.777344 16.953125 25.644531 16.820312 25.332031 C 16.636719 24.878906 16.460938 23.617188 16.328125 21.695312 C 16.273438 20.898438 16.195312 19.871094 16.152344 19.429688 L 16.078125 18.621094 L 16.527344 19.460938 C 16.765625 19.925781 17.140625 20.488281 17.347656 20.714844 C 17.554688 20.941406 17.753906 21.1875 17.773438 21.273438 C 17.808594 21.359375 17.863281 21.402344 17.894531 21.371094 C 17.941406 21.328125 17.710938 20.972656 17.390625 20.550781 C 17.074219 20.140625 16.636719 19.441406 16.417969 18.996094 C 16.023438 18.21875 16 18.121094 15.914062 16.621094 C 15.847656 15.660156 15.8125 15.371094 15.804688 15.867188 Z M 15.804688 15.867188 "/>
</g>
</svg>
